<svg width="18" height="18" viewBox="0 0 15 15" fill="none" xmlns="http://www.w3.org/2000/svg">
<path d="M14.6676 1.16717V10.8338C14.6675 10.9246 14.6427 11.0137 14.5958 11.0914C14.549 11.1692 14.4818 11.2327 14.4016 11.2752C14.1456 11.4112 13.8796 11.2518 13.6423 11.1098L13.6403 11.1085C13.5803 11.0725 13.5223 11.0372 13.4663 11.0085C13.0356 10.7889 12.5901 10.5998 12.1329 10.4425C10.9743 10.0378 9.25227 9.62717 6.99761 9.6085C6.99975 9.62799 7.00086 9.64757 7.00094 9.66717C7.00094 11.1865 7.33027 12.5198 7.60494 13.3652C7.85027 14.1192 7.31294 15.0005 6.45027 15.0005H5.10827C4.64427 15.0005 4.20161 14.7205 4.04161 14.2478C3.79027 13.5038 3.33427 11.8745 3.33427 9.83384V9.52917C2.48197 9.28849 1.74559 8.74746 1.26118 8.00605C0.776764 7.26464 0.577065 6.37296 0.698978 5.49576C0.82089 4.61856 1.25617 3.81513 1.9244 3.23391C2.59263 2.6527 3.44864 2.33298 4.33427 2.33383H6.83427C9.17094 2.33383 10.9509 1.92717 12.1376 1.52717C12.5944 1.3755 13.0403 1.19285 13.4723 0.980499C13.5829 0.925576 13.6918 0.867327 13.7989 0.805832C13.8309 0.787166 13.8623 0.769166 13.8936 0.749166C13.9691 0.700004 14.0564 0.672099 14.1463 0.668393C14.2363 0.664687 14.3256 0.685315 14.4049 0.728106C14.4841 0.770896 14.5503 0.834264 14.5966 0.911534C14.6428 0.988804 14.6673 1.07712 14.6676 1.16717ZM7.00094 8.6085C9.37694 8.62783 11.2096 9.0605 12.4629 9.4985C12.9543 9.6705 13.3563 9.84317 13.6676 9.99184V1.99583C13.3563 2.13983 12.9523 2.30717 12.4576 2.4745C11.2056 2.89717 9.37494 3.3145 7.00094 3.33317V8.6085ZM4.33427 3.33383C3.62703 3.33383 2.94875 3.61478 2.44865 4.11488C1.94856 4.61498 1.66761 5.29326 1.66761 6.0005C1.66761 6.70775 1.94856 7.38602 2.44865 7.88612C2.94875 8.38622 3.62703 8.66717 4.33427 8.66717H6.00094V3.33383H4.33427ZM4.33427 9.83384C4.33427 11.7318 4.75961 13.2492 4.98894 13.9278C5.00094 13.9618 5.03827 14.0005 5.10827 14.0005H6.45027C6.50827 14.0005 6.56961 13.9718 6.61627 13.9025C6.63959 13.8698 6.65513 13.8322 6.66171 13.7926C6.6683 13.7529 6.66575 13.7123 6.65427 13.6738C6.35894 12.7658 6.00094 11.3245 6.00094 9.66717H4.33427V9.83384Z" fill="#0D1821"/>
</svg>
