<svg width="18" height="18" viewBox="0 0 12 14" fill="none" xmlns="http://www.w3.org/2000/svg">
<path d="M5.313 1.26162C5.49867 1.08609 5.74449 0.988281 6 0.988281C6.25551 0.988281 6.50133 1.08609 6.687 1.26162L11.531 5.84062C11.831 6.12362 12 6.51862 12 6.93062V12.5006C12 12.8985 11.842 13.28 11.5607 13.5613C11.2794 13.8426 10.8978 14.0006 10.5 14.0006H8.5C8.30293 14.0006 8.1078 13.9618 7.92574 13.8863C7.74369 13.8109 7.57829 13.7003 7.43899 13.5609C7.29969 13.4215 7.18922 13.2561 7.11389 13.074C7.03857 12.8919 6.99987 12.6967 7 12.4996V9.99963C7 9.86702 6.94732 9.73984 6.85355 9.64607C6.75979 9.5523 6.63261 9.49963 6.5 9.49963H5.5C5.36739 9.49963 5.24021 9.5523 5.14645 9.64607C5.05268 9.73984 5 9.86702 5 9.99963V12.4996C5 12.8975 4.84196 13.279 4.56066 13.5603C4.27936 13.8416 3.89782 13.9996 3.5 13.9996H1.5C1.10218 13.9996 0.720644 13.8416 0.43934 13.5603C0.158035 13.279 0 12.8975 0 12.4996V6.92962C0 6.51762 0.17 6.12262 0.47 5.83962L5.313 1.25962V1.26162ZM6 1.98762L1.156 6.56762C1.10682 6.61424 1.06764 6.67037 1.04082 6.7326C1.014 6.79483 1.00012 6.86186 1 6.92962V12.4996C1 12.6322 1.05268 12.7594 1.14645 12.8532C1.24021 12.9469 1.36739 12.9996 1.5 12.9996H3.5C3.63261 12.9996 3.75979 12.9469 3.85355 12.8532C3.94732 12.7594 4 12.6322 4 12.4996V9.99963C4 9.6018 4.15804 9.22027 4.43934 8.93896C4.72064 8.65766 5.10218 8.49962 5.5 8.49962H6.5C6.89782 8.49962 7.27936 8.65766 7.56066 8.93896C7.84196 9.22027 8 9.6018 8 9.99963V12.4996C8 12.6322 8.05268 12.7594 8.14645 12.8532C8.24021 12.9469 8.36739 12.9996 8.5 12.9996H10.5C10.6326 12.9996 10.7598 12.9469 10.8536 12.8532C10.9473 12.7594 11 12.6322 11 12.4996V6.92962C11 6.86169 10.9862 6.79447 10.9594 6.73206C10.9326 6.66965 10.8933 6.61336 10.844 6.56662L6 1.98762Z" fill="white"/>
</svg>
