<svg width="18" height="18" viewBox="0 0 16 16" fill="none" xmlns="http://www.w3.org/2000/svg">
<path d="M3.3195 6.45602C1.9955 5.92668 1.3335 5.66201 1.3335 5.33268C1.3335 5.00335 1.9955 4.73935 3.3195 4.20935L5.1915 3.46068C6.5155 2.93068 7.17816 2.66602 8.00016 2.66602C8.82283 2.66602 9.48483 2.93068 10.8088 3.46068L12.6808 4.20935C14.0048 4.73868 14.6668 5.00335 14.6668 5.33268C14.6668 5.66201 14.0048 5.92602 12.6808 6.45602L10.8088 7.20468C9.48483 7.73535 8.82216 7.99935 8.00016 7.99935C7.1775 7.99935 6.5155 7.73468 5.1915 7.20535L3.32016 6.45535L3.3195 6.45602Z" stroke="#0D1821"/>
<path d="M3.84416 6.66602L3.3195 6.87602C1.9955 7.40535 1.3335 7.67068 1.3335 7.99935C1.3335 8.32802 1.9955 8.59268 3.3195 9.12268L5.1915 9.87135C6.5155 10.402 7.17816 10.666 8.00016 10.666C8.82283 10.666 9.48483 10.4013 10.8088 9.87202L12.6808 9.12268C14.0048 8.59335 14.6668 8.32802 14.6668 7.99935C14.6668 7.67068 14.0048 7.40602 12.6808 6.87602L12.1562 6.66602" stroke="#0D1821"/>
<path d="M3.84416 9.33203L3.3195 9.54203C1.9955 10.0714 1.3335 10.3367 1.3335 10.6654C1.3335 10.9947 1.9955 11.2587 3.3195 11.7887L5.1915 12.5374C6.5155 13.068 7.17816 13.332 8.00016 13.332C8.82283 13.332 9.48483 13.0674 10.8088 12.5374L12.6808 11.7887C14.0048 11.2594 14.6668 10.9947 14.6668 10.6654C14.6668 10.3367 14.0048 10.072 12.6808 9.54203L12.1562 9.33203" stroke="#0D1821"/>
</svg>
