<svg width="28" height="28" viewBox="0 0 22 22" fill="none" xmlns="http://www.w3.org/2000/svg">
<path d="M19.4 0.200012H2.60001C1.28001 0.200012 0.200012 1.28001 0.200012 2.60001V19.4C0.200012 20.7212 1.28001 21.8 2.60001 21.8H11V13.4H8.60001V10.43H11V7.97001C11 5.37321 12.4544 3.54921 15.5192 3.54921L17.6828 3.55161V6.67761H16.2464C15.0536 6.67761 14.6 7.57281 14.6 8.40321V10.4312H17.6816L17 13.4H14.6V21.8H19.4C20.72 21.8 21.8 20.7212 21.8 19.4V2.60001C21.8 1.28001 20.72 0.200012 19.4 0.200012Z" fill="#053559"/>
</svg>
