<svg width="28" height="28" viewBox="0 0 20 20" fill="none" xmlns="http://www.w3.org/2000/svg">
<path d="M11.028 0.000986255C11.7577 -0.00181397 12.4875 0.00552015 13.217 0.0229863L13.411 0.0299863C13.635 0.0379863 13.856 0.0479863 14.123 0.0599863C15.187 0.109986 15.913 0.277986 16.55 0.524986C17.21 0.778986 17.766 1.12299 18.322 1.67899C18.8304 2.17859 19.2238 2.78293 19.475 3.44999C19.722 4.08699 19.89 4.81399 19.94 5.87799C19.952 6.14399 19.962 6.36599 19.97 6.58999L19.976 6.78399C19.9938 7.51318 20.0014 8.24258 19.999 8.97199L20 9.71799V11.028C20.0025 11.7577 19.9948 12.4875 19.977 13.217L19.971 13.411C19.963 13.635 19.953 13.856 19.941 14.123C19.891 15.187 19.721 15.913 19.475 16.55C19.2246 17.2177 18.8311 17.8226 18.322 18.322C17.822 18.8303 17.2173 19.2237 16.55 19.475C15.913 19.722 15.187 19.89 14.123 19.94C13.856 19.952 13.635 19.962 13.411 19.97L13.217 19.976C12.4875 19.9938 11.7577 20.0014 11.028 19.999L10.282 20H8.973C8.24326 20.0025 7.51352 19.9948 6.784 19.977L6.59 19.971C6.35261 19.9624 6.11527 19.9524 5.878 19.941C4.814 19.891 4.088 19.721 3.45 19.475C2.78268 19.2243 2.17823 18.8308 1.679 18.322C1.17004 17.8223 0.776221 17.2175 0.524997 16.55C0.277997 15.913 0.109997 15.187 0.0599971 14.123C0.04886 13.8857 0.0388599 13.6484 0.0299971 13.411L0.0249973 13.217C0.00656085 12.4875 -0.00177338 11.7577 -2.83326e-06 11.028V8.97199C-0.0027938 8.24259 0.00454031 7.51318 0.0219972 6.78399L0.0289972 6.58999C0.0369972 6.36599 0.0469972 6.14399 0.0589972 5.87799C0.108997 4.81299 0.276997 4.08799 0.523997 3.44999C0.77537 2.78261 1.16996 2.17843 1.68 1.67999C2.17889 1.17074 2.78296 0.776559 3.45 0.524986C4.088 0.277986 4.813 0.109986 5.878 0.0599863L6.59 0.0299863L6.784 0.0249864C7.51318 0.00655924 8.24258 -0.00177499 8.972 -1.36727e-05L11.028 0.000986255ZM10 5.00099C9.3375 4.99162 8.67975 5.11401 8.06497 5.36105C7.45019 5.6081 6.89064 5.97486 6.41884 6.44004C5.94704 6.90522 5.5724 7.45952 5.31668 8.07075C5.06097 8.68197 4.92929 9.33793 4.92929 10.0005C4.92929 10.663 5.06097 11.319 5.31668 11.9302C5.5724 12.5414 5.94704 13.0958 6.41884 13.5609C6.89064 14.0261 7.45019 14.3929 8.06497 14.6399C8.67975 14.887 9.3375 15.0094 10 15C11.3261 15 12.5978 14.4732 13.5355 13.5355C14.4732 12.5978 15 11.3261 15 9.99999C15 8.6739 14.4732 7.40213 13.5355 6.46445C12.5978 5.52677 11.3261 5.00099 10 5.00099ZM10 7.00099C10.3985 6.99364 10.7945 7.06578 11.1648 7.21319C11.5351 7.3606 11.8723 7.58033 12.1568 7.85953C12.4412 8.13873 12.6672 8.47182 12.8214 8.83933C12.9757 9.20684 13.0552 9.6014 13.0553 9.99998C13.0553 10.3986 12.976 10.7931 12.8218 11.1607C12.6677 11.5283 12.4418 11.8614 12.1575 12.1407C11.8731 12.42 11.536 12.6399 11.1657 12.7874C10.7955 12.9349 10.3995 13.0072 10.001 13C9.20535 13 8.44229 12.6839 7.87968 12.1213C7.31707 11.5587 7.001 10.7956 7.001 9.99999C7.001 9.20434 7.31707 8.44127 7.87968 7.87867C8.44229 7.31606 9.20535 6.99999 10.001 6.99999L10 7.00099ZM15.25 3.50099C14.9274 3.5139 14.6223 3.65114 14.3986 3.88396C14.1749 4.11678 14.05 4.42712 14.05 4.74999C14.05 5.07285 14.1749 5.38319 14.3986 5.61601C14.6223 5.84884 14.9274 5.98607 15.25 5.99899C15.5815 5.99899 15.8995 5.86729 16.1339 5.63287C16.3683 5.39845 16.5 5.08051 16.5 4.74899C16.5 4.41747 16.3683 4.09952 16.1339 3.8651C15.8995 3.63068 15.5815 3.49899 15.25 3.49899V3.50099Z" fill="#053559"/>
</svg>
