<svg width="18" height="18" viewBox="0 0 14 15" fill="none" xmlns="http://www.w3.org/2000/svg">
<path d="M3.80074 4.79883C3.80074 4.69274 3.84288 4.591 3.9179 4.51599C3.99291 4.44097 4.09465 4.39883 4.20074 4.39883H6.60074C6.70683 4.39883 6.80857 4.44097 6.88358 4.51599C6.9586 4.591 7.00074 4.69274 7.00074 4.79883C7.00074 4.90491 6.9586 5.00666 6.88358 5.08167C6.80857 5.15668 6.70683 5.19883 6.60074 5.19883H4.20074C4.09465 5.19883 3.99291 5.15668 3.9179 5.08167C3.84288 5.00666 3.80074 4.90491 3.80074 4.79883ZM4.20074 5.99883C4.09465 5.99883 3.99291 6.04097 3.9179 6.11599C3.84288 6.191 3.80074 6.29274 3.80074 6.39883C3.80074 6.50491 3.84288 6.60666 3.9179 6.68167C3.99291 6.75669 4.09465 6.79883 4.20074 6.79883H5.80074C5.90683 6.79883 6.00857 6.75669 6.08358 6.68167C6.1586 6.60666 6.20074 6.50491 6.20074 6.39883C6.20074 6.29274 6.1586 6.191 6.08358 6.11599C6.00857 6.04097 5.90683 5.99883 5.80074 5.99883H4.20074ZM5.40074 0.798828C4.56798 0.798548 3.74947 1.01493 3.02564 1.42671C2.30181 1.83849 1.69757 2.4315 1.27228 3.14747C0.846988 3.86344 0.615285 4.67774 0.599937 5.51036C0.584588 6.34298 0.786123 7.16527 1.18474 7.89643L0.616737 9.88843C0.596751 9.95837 0.596219 10.0324 0.615197 10.1027C0.634176 10.1729 0.671947 10.2366 0.724445 10.287C0.776944 10.3373 0.842182 10.3724 0.913138 10.3885C0.984094 10.4045 1.05808 10.4009 1.12714 10.378L2.99754 9.75483C3.63503 10.1232 4.34871 10.34 5.08339 10.3884C5.81807 10.4369 6.55404 10.3156 7.23437 10.0341C7.9147 9.75262 8.52115 9.31839 9.00681 8.765C9.49247 8.21162 9.84432 7.55394 10.0351 6.84282C10.2259 6.13171 10.2506 5.38623 10.1072 4.66406C9.96385 3.94188 9.65625 3.26237 9.20824 2.67809C8.76023 2.09382 8.18382 1.62043 7.52359 1.29456C6.86336 0.968693 6.13701 0.799074 5.40074 0.798828ZM1.40074 5.59883C1.40087 4.71131 1.69616 3.84904 2.24013 3.14777C2.78411 2.4465 3.54586 1.94605 4.40546 1.72522C5.26507 1.50439 6.1737 1.57571 6.98832 1.92797C7.80294 2.28022 8.47728 2.89339 8.90516 3.67095C9.33305 4.44851 9.49019 5.34629 9.35184 6.22296C9.21349 7.09963 8.78751 7.90539 8.14096 8.51338C7.49441 9.12138 6.66402 9.49709 5.78051 9.58135C4.897 9.66561 4.01056 9.45365 3.26074 8.97883C3.21058 8.94703 3.15398 8.9268 3.09503 8.9196C3.03608 8.91241 2.97627 8.91843 2.91994 8.93723L1.59354 9.37963L2.00154 7.95483C2.0164 7.90235 2.02038 7.84739 2.01323 7.79333C2.00607 7.73926 1.98794 7.68723 1.95994 7.64043C1.59263 7.02286 1.39939 6.31737 1.40074 5.59883ZM8.82154 11.9564L6.89994 10.9964C7.25194 10.898 7.59034 10.7668 7.91034 10.606L9.00074 11.1516L12.6007 9.35163V8.79883C12.6007 8.58665 12.5165 8.38317 12.3664 8.23314C12.2164 8.08311 12.0129 7.99883 11.8007 7.99883H10.4615C10.5839 7.74283 10.6863 7.47483 10.7687 7.19883H11.8007C12.2251 7.19883 12.6321 7.3674 12.9321 7.66746C13.2322 7.96751 13.4007 8.37448 13.4007 8.79883V12.7988C13.4007 13.2232 13.2322 13.6301 12.9321 13.9302C12.6321 14.2303 12.2251 14.3988 11.8007 14.3988H6.20074C5.77639 14.3988 5.36943 14.2303 5.06937 13.9302C4.76931 13.6301 4.60074 13.2232 4.60074 12.7988V11.1428C4.86234 11.1796 5.12874 11.1988 5.40074 11.1988V12.7988C5.40074 13.011 5.48502 13.2145 5.63505 13.3645C5.78508 13.5145 5.98857 13.5988 6.20074 13.5988H11.8007C12.0129 13.5988 12.2164 13.5145 12.3664 13.3645C12.5165 13.2145 12.6007 13.011 12.6007 12.7988V10.246L9.17994 11.9564C9.12432 11.9843 9.06296 11.9988 9.00074 11.9988C8.93852 11.9988 8.87716 11.9843 8.82154 11.9564Z" fill="#0D1821"/>
</svg>
