<svg width="14" height="14" viewBox="0 0 14 14" fill="none" xmlns="http://www.w3.org/2000/svg">
<path d="M11 6V11.75C11 11.9142 10.9677 12.0767 10.9048 12.2284C10.842 12.38 10.75 12.5178 10.6339 12.6339C10.5178 12.75 10.38 12.842 10.2284 12.9048C10.0767 12.9677 9.91415 13 9.75 13H2.25C1.91848 13 1.60054 12.8683 1.36612 12.6339C1.1317 12.3995 1 12.0815 1 11.75V4.25C1 3.91848 1.1317 3.60054 1.36612 3.36612C1.60054 3.1317 1.91848 3 2.25 3H7.48375M9.5 1H13V4.5M6 8L12.75 1.25" stroke="#E9E9E9" stroke-width="1.3" stroke-linecap="round" stroke-linejoin="round"/>
</svg>
